<?xml version="1.0" standalone="no"?>
<!DOCTYPE svg PUBLIC "-//W3C//DTD SVG 20010904//EN"
 "http://www.w3.org/TR/2001/REC-SVG-20010904/DTD/svg10.dtd">
<svg version="1.0" xmlns="http://www.w3.org/2000/svg"
 width="1408.000000pt" height="768.000000pt" viewBox="0 0 1408.000000 768.000000"
 preserveAspectRatio="xMidYMid meet">

<g transform="translate(0.000000,768.000000) scale(0.100000,-0.100000)"
fill="#000000" stroke="none">
<path d="M6735 7156 c-685 -70 -1294 -336 -1816 -792 -722 -632 -1133 -1550
-1131 -2532 0 -237 11 -370 47 -577 121 -690 425 -1289 908 -1784 359 -369
811 -650 1297 -810 678 -221 1409 -213 2079 25 1075 382 1886 1329 2111 2462
137 691 64 1408 -208 2037 -175 406 -414 751 -738 1065 -136 132 -204 191
-324 282 -442 334 -971 547 -1525 614 -173 21 -541 26 -700 10z m690 -125
c770 -102 1427 -452 1944 -1036 206 -232 342 -436 481 -720 224 -455 330 -922
331 -1460 1 -226 -14 -375 -62 -624 -200 -1051 -941 -1955 -1924 -2349 -217
-87 -401 -138 -687 -189 -144 -26 -170 -28 -453 -28 -319 0 -362 4 -640 61
-633 129 -1221 463 -1657 940 -490 536 -784 1214 -849 1954 -27 307 17 797 97
1090 39 141 128 395 169 485 26 55 56 120 67 145 30 66 132 242 201 345 356
536 865 953 1457 1193 289 117 592 184 975 215 103 9 412 -4 550 -22z"/>
<path d="M6865 6973 c-209 -14 -475 -60 -675 -118 -978 -284 -1773 -1081
-2073 -2080 -85 -282 -107 -526 -68 -757 24 -135 53 -222 131 -379 37 -75 60
-136 65 -170 4 -30 18 -119 32 -198 13 -79 23 -145 21 -147 -2 -2 -23 42 -47
96 -24 55 -64 135 -88 177 -43 74 -164 311 -176 343 -18 49 3 -240 29 -395 42
-259 97 -416 200 -571 57 -87 159 -182 250 -234 46 -27 58 -42 118 -147 75
-133 156 -250 268 -385 107 -130 142 -162 156 -145 9 10 -9 39 -77 127 -200
262 -346 528 -462 845 -45 121 -81 273 -81 335 2 112 70 318 132 400 14 19 11
2 -15 -75 -35 -103 -72 -282 -60 -293 4 -4 37 25 73 63 119 125 169 266 158
449 -3 54 -8 101 -11 105 -13 12 -113 -52 -169 -107 -71 -70 -125 -157 -147
-237 l-17 -60 -8 40 c-5 22 -9 137 -9 255 1 207 2 219 28 305 37 117 106 247
168 315 47 52 49 53 26 15 -65 -108 -130 -275 -150 -383 l-7 -32 28 14 c43 23
140 114 184 174 80 108 127 245 143 414 4 37 4 72 1 77 -7 11 -107 -26 -170
-63 -57 -33 -140 -109 -167 -152 -12 -19 -23 -33 -26 -30 -7 6 42 197 76 296
43 127 84 227 157 378 58 123 70 162 47 162 -28 0 -193 -312 -258 -485 -20
-55 -39 -102 -42 -105 -6 -6 4 168 18 325 19 222 70 358 217 580 206 314 433
556 720 772 422 316 910 507 1444 563 115 12 447 12 568 0 240 -23 492 -81
725 -165 134 -48 368 -160 490 -235 399 -243 744 -585 994 -985 149 -238 187
-369 196 -675 4 -136 3 -168 -6 -145 -79 211 -145 349 -226 474 -39 61 -57 81
-65 73 -12 -12 -12 -11 110 -277 65 -142 130 -330 162 -468 11 -48 20 -91 20
-95 0 -4 -15 16 -34 44 -57 85 -173 169 -279 204 l-52 17 -3 -60 c-6 -116 39
-277 109 -393 40 -65 130 -160 195 -205 l47 -32 -7 44 c-16 100 -68 239 -126
336 l-40 68 50 -54 c57 -60 140 -219 164 -315 30 -113 39 -226 32 -376 -4 -80
-11 -163 -15 -185 l-7 -40 -8 40 c-4 22 -25 76 -46 120 -45 93 -115 169 -212
227 l-63 38 -9 -33 c-4 -17 -6 -86 -4 -152 4 -102 9 -130 33 -190 35 -87 97
-177 154 -224 l44 -36 -7 70 c-10 94 -33 186 -67 265 -25 55 -26 61 -8 40 57
-68 126 -256 135 -374 5 -56 2 -91 -16 -161 -86 -345 -291 -748 -539 -1060
-59 -75 -76 -103 -68 -113 8 -10 22 -1 65 40 121 119 285 345 393 545 29 53
43 67 99 99 36 20 101 73 146 118 202 203 292 479 330 1016 3 47 3 83 0 80 -3
-3 -19 -39 -37 -80 -17 -40 -64 -134 -105 -207 -41 -74 -97 -185 -125 -246
-47 -103 -72 -150 -55 -102 4 11 21 105 37 209 29 189 29 189 94 321 106 218
138 356 138 590 -1 277 -73 567 -226 905 -442 977 -1323 1651 -2347 1796 -207
29 -434 39 -615 27z"/>
<path d="M6987 6693 c-4 -3 -7 -105 -7 -225 l0 -218 53 0 54 0 5 108 c3 59 4
150 2 202 -2 52 -3 105 -4 118 0 20 -5 22 -48 22 -27 0 -52 -3 -55 -7z"/>
<path d="M7275 6674 c-3 -13 -7 -34 -10 -46 -6 -31 -55 -357 -55 -367 0 -14
101 -30 105 -17 2 6 11 64 21 129 9 64 19 117 20 117 2 0 42 -65 89 -144 75
-126 90 -145 117 -150 56 -11 68 -8 68 18 0 14 14 105 30 203 17 98 30 185 30
194 0 11 -11 18 -32 22 -18 3 -40 8 -49 12 -14 5 -19 -8 -34 -92 -33 -189 -18
-186 -119 -19 -48 80 -91 146 -94 146 -4 0 -24 4 -45 9 -34 8 -38 7 -42 -15z"/>
<path d="M6523 6651 c-89 -15 -92 -16 -87 -41 2 -14 16 -113 30 -220 15 -107
28 -196 29 -198 1 -1 25 3 54 9 l51 11 -6 62 -6 63 43 7 c44 7 44 7 95 -50
l51 -57 58 7 c33 4 61 9 63 11 3 2 -23 32 -57 66 l-62 61 26 25 c50 51 56 133
15 201 -39 63 -115 74 -297 43z m202 -95 c22 -33 15 -75 -15 -97 -21 -16 -128
-44 -136 -37 -1 2 -5 35 -9 75 -8 81 -11 79 92 82 45 1 55 -2 68 -23z"/>
<path d="M6150 6556 c-47 -18 -117 -45 -156 -60 l-71 -27 68 -192 c88 -244 87
-241 102 -230 11 9 51 24 235 93 45 18 82 33 82 35 0 1 -7 19 -16 40 -11 28
-19 35 -32 30 -49 -20 -204 -75 -211 -75 -12 0 -34 81 -24 90 4 5 42 20 83 35
104 36 102 35 89 76 -7 19 -13 35 -14 37 -1 1 -46 -13 -99 -32 -105 -37 -105
-38 -119 25 -6 25 -3 27 103 68 l110 42 -15 36 c-8 19 -15 37 -15 39 0 7 -15
3 -100 -30z"/>
<path d="M7851 6346 l-174 -173 52 -18 51 -17 41 33 40 32 92 -40 92 -39 3
-51 c3 -50 3 -51 50 -69 26 -11 51 -21 56 -23 5 -2 6 26 3 65 -4 38 -9 146
-13 239 -3 94 -10 176 -14 184 -4 8 -29 22 -56 32 l-48 19 -175 -174z m196
-123 c-5 -4 -110 32 -126 44 -3 2 22 31 55 64 l59 60 9 -81 c4 -45 6 -84 3
-87z"/>
<path d="M5620 6309 c-91 -56 -167 -103 -169 -105 -7 -6 27 -74 37 -74 4 0 34
15 65 34 l57 35 14 -22 c8 -12 46 -78 86 -147 39 -69 75 -129 80 -133 9 -10
90 33 90 48 0 6 -38 78 -84 160 -47 82 -83 152 -80 156 2 4 29 21 59 38 l55
31 -20 40 c-11 22 -21 40 -23 40 -1 0 -76 -46 -167 -101z"/>
<path d="M8331 6138 c-67 -99 -120 -186 -118 -192 3 -6 23 -21 45 -34 l41 -23
31 46 c35 51 46 54 84 24 24 -19 26 -27 26 -93 0 -78 10 -94 83 -140 l28 -17
-7 95 -7 96 39 0 c108 0 177 122 128 225 -19 41 -98 103 -240 188 -6 3 -62
-69 -133 -175z m199 25 c55 -36 80 -67 80 -97 0 -69 -65 -86 -143 -36 -26 16
-47 32 -47 35 0 9 73 115 79 115 4 0 18 -7 31 -17z"/>
<path d="M5232 6033 c-54 -49 -113 -100 -132 -114 l-34 -26 20 -24 c10 -14 77
-91 148 -172 115 -131 131 -146 147 -135 9 7 69 59 133 116 123 109 121 106
82 156 -14 18 -20 14 -106 -60 -50 -44 -95 -80 -99 -82 -4 -1 -20 13 -36 33
l-27 36 79 74 78 73 -27 28 c-25 25 -29 26 -45 13 -10 -9 -47 -40 -81 -69
l-64 -55 -29 35 -29 35 38 35 c20 19 61 56 91 81 l55 46 -25 31 c-13 17 -27
31 -31 31 -4 1 -52 -38 -106 -86z"/>
<path d="M8826 5902 c-37 -42 -102 -114 -144 -160 l-76 -83 38 -37 38 -37 95
100 c52 55 120 128 150 163 l56 63 -33 34 c-19 19 -39 35 -44 34 -6 0 -42 -35
-80 -77z"/>
<path d="M6922 5898 c-8 -8 -12 -51 -12 -129 l0 -117 -118 -4 c-82 -2 -124 -7
-135 -17 -14 -11 -17 -33 -17 -115 0 -140 -2 -138 137 -137 80 1 114 -3 120
-11 4 -7 8 -62 9 -122 0 -137 0 -136 139 -136 135 0 135 0 135 147 0 129 -12
119 143 122 124 2 130 9 125 144 -4 127 -4 127 -155 127 l-113 0 0 113 c0 148
1 147 -141 147 -68 0 -109 -4 -117 -12z m90 -255 c36 -32 15 -100 -29 -91 -27
5 -48 55 -34 84 12 28 37 31 63 7z m116 5 c19 -19 14 -54 -10 -83 -22 -25 -24
-25 -46 -9 -19 13 -23 22 -18 47 11 53 45 74 74 45z m-176 -114 c9 -19 8 -28
-7 -44 -10 -11 -22 -20 -27 -20 -17 0 -48 41 -48 65 0 50 59 50 82 -1z m258
21 c27 -32 -33 -102 -65 -75 -20 16 -19 49 2 72 19 22 46 23 63 3z m-140 -35
c50 -27 100 -124 75 -148 -11 -11 -189 -11 -202 0 -25 20 -13 56 35 107 50 53
61 58 92 41z"/>
<path d="M4936 5750 l-36 -40 81 -161 c58 -117 75 -160 62 -155 -10 4 -83 27
-162 52 -110 34 -146 42 -157 33 -17 -14 -58 -79 -52 -84 6 -6 432 -125 449
-125 16 0 69 69 69 90 0 6 -49 105 -109 221 l-108 210 -37 -41z"/>
<path d="M8975 5616 c-121 -34 -227 -64 -235 -67 -10 -4 -4 -17 26 -49 l41
-43 46 16 46 15 44 -51 c24 -29 54 -67 67 -85 l24 -32 -22 -46 -22 -45 37 -45
37 -44 25 47 c35 68 150 320 169 369 l16 41 -35 41 c-19 23 -36 41 -39 41 -3
0 -104 -29 -225 -63z m175 -61 c0 -10 -48 -100 -64 -120 -16 -20 -17 -19 -47
15 -57 65 -57 67 13 89 65 20 98 25 98 16z"/>
<path d="M6529 5525 c-125 -65 -430 -165 -503 -165 -13 0 -28 -6 -34 -12 -12
-16 -29 -120 -42 -268 -17 -195 -16 -207 34 -306 25 -49 58 -105 75 -124 l30
-35 0 35 c0 19 -4 76 -9 125 -9 101 6 418 21 447 5 10 17 18 27 18 28 0 304
96 386 134 l76 35 0 70 c0 39 -3 71 -7 71 -5 -1 -29 -12 -54 -25z"/>
<path d="M7500 5480 l0 -70 51 -26 c76 -38 220 -92 334 -123 l100 -28 8 -39
c4 -22 10 -131 13 -244 5 -177 3 -224 -15 -344 -12 -76 -30 -175 -41 -220 -37
-147 -115 -333 -194 -462 l-26 -41 73 -6 c65 -5 74 -3 89 16 57 71 160 339
198 513 58 265 65 615 19 881 -11 61 -12 63 -47 69 -138 24 -315 81 -451 145
-57 27 -105 49 -107 49 -2 0 -4 -31 -4 -70z"/>
<path d="M6704 5294 c-18 -14 -18 -15 4 -4 12 6 22 13 22 15 0 8 -5 6 -26 -11z"/>
<path d="M6814 5268 c-26 -29 -26 -30 -2 -9 l26 23 5 -24 c3 -18 5 -16 6 10 0
17 0 32 -2 32 -2 0 -16 -15 -33 -32z"/>
<path d="M7232 5280 c0 -14 2 -19 5 -12 2 6 2 18 0 25 -3 6 -5 1 -5 -13z"/>
<path d="M7278 5183 c13 -13 28 -23 35 -23 7 0 3 6 -8 12 -11 6 -27 16 -35 22
-9 6 -5 1 8 -11z"/>
<path d="M6649 5173 c-6 -37 1 -42 51 -32 l35 6 -37 2 c-32 1 -37 4 -40 29 -3
27 -4 27 -9 -5z"/>
<path d="M7345 5150 c19 -8 103 -14 94 -6 -2 2 -29 6 -59 9 -34 3 -47 2 -35
-3z"/>
<path d="M6850 5009 c-144 -21 -239 -84 -327 -217 -140 -213 -152 -275 -71
-359 l30 -31 -27 -61 c-15 -33 -33 -65 -40 -71 -8 -7 -52 22 -154 102 -139
108 -211 185 -278 299 -9 16 -20 29 -24 29 -8 0 -46 -130 -60 -210 -14 -82
-14 -243 1 -335 14 -88 63 -233 102 -305 107 -194 298 -368 492 -449 43 -18
138 -73 213 -122 75 -50 179 -111 230 -136 91 -44 96 -45 136 -33 47 14 137
61 247 130 41 26 116 68 165 93 111 57 175 110 310 255 89 96 105 118 105 146
0 43 -37 83 -84 91 -32 6 -69 -2 -138 -30 -13 -5 -21 2 -34 28 -20 42 -13 67
18 67 17 0 19 3 10 12 -7 7 -12 23 -12 36 0 21 4 24 25 20 30 -6 31 -2 6 20
-25 23 -44 141 -42 265 2 113 -11 167 -40 167 -29 0 -94 -36 -137 -74 -35 -32
-39 -33 -87 -26 -27 5 -75 6 -105 3 -52 -5 -57 -3 -90 27 -37 35 -103 69 -133
70 -33 0 -51 -64 -52 -185 -1 -165 -12 -225 -44 -252 l-26 -22 30 2 c24 2 31
-2 33 -19 2 -11 -4 -27 -13 -34 -22 -19 -18 -32 6 -19 17 9 23 8 30 -2 12 -19
11 -23 -7 -62 l-16 -34 -62 19 c-88 28 -210 22 -290 -15 -32 -15 -60 -27 -61
-27 -2 0 -5 51 -7 113 -5 129 -26 199 -82 278 -37 50 -44 73 -26 84 6 4 21 28
35 55 14 27 29 51 35 55 5 3 30 -10 53 -29 108 -89 194 -87 247 6 22 37 25 55
24 128 -1 74 -6 98 -38 179 -27 67 -37 106 -34 133 4 46 -6 49 -21 7 -16 -47
-14 -95 9 -174 41 -145 16 -265 -55 -265 -26 0 -212 134 -239 171 -9 13 -16
35 -16 48 0 37 118 237 171 290 150 151 431 156 536 10 38 -53 60 -63 166 -75
58 -7 58 -7 52 -36 -6 -23 -1 -34 28 -63 19 -19 43 -35 52 -35 41 0 -16 -100
-78 -139 -83 -51 -221 -48 -275 6 -22 22 -26 23 -40 9 -14 -14 -14 -18 9 -42
40 -44 95 -64 180 -64 65 0 85 4 137 31 73 36 117 85 137 153 15 51 20 151 9
181 -12 30 -66 47 -178 56 l-110 8 -56 60 c-64 71 -111 96 -200 110 -72 12
-81 12 -160 0z m-734 -614 c32 -28 103 -86 157 -129 113 -91 153 -137 198
-226 27 -53 33 -80 37 -148 3 -51 0 -88 -6 -94 -25 -25 -230 158 -322 287 -30
41 -56 73 -58 70 -2 -2 18 -45 44 -95 105 -200 285 -370 391 -370 19 0 62 12
96 27 98 41 189 43 302 5 134 -45 164 -51 271 -62 75 -7 102 -13 117 -28 29
-29 14 -58 -40 -78 -41 -16 -57 -16 -152 -6 -140 16 -166 15 -207 -4 -46 -22
-43 -34 9 -34 23 0 83 -7 132 -15 218 -36 314 -6 520 160 125 100 173 122 214
96 22 -14 -5 -49 -140 -182 -102 -100 -129 -121 -211 -161 -271 -134 -377
-135 -748 -11 -232 77 -366 150 -469 257 l-44 45 59 -23 c49 -20 214 -43 214
-31 0 2 -17 13 -37 25 -30 17 -34 18 -22 4 12 -16 12 -17 -1 -11 -8 3 -47 19
-86 35 -86 36 -134 61 -134 68 0 4 9 4 21 1 16 -4 18 -3 8 9 -13 16 -39 19
-39 3 0 -5 -5 -7 -10 -4 -6 4 -7 11 -4 17 5 7 2 8 -5 3 -8 -4 -24 4 -41 20
-25 24 -27 29 -14 42 12 12 12 18 2 31 -11 13 -10 14 10 8 29 -10 28 -5 -10
30 -18 17 -29 22 -25 12 5 -14 3 -15 -21 -3 -23 13 -51 48 -52 68 0 4 9 3 20
-3 15 -8 10 10 -28 87 l-47 98 0 140 c0 77 4 157 8 178 l8 38 38 -48 c21 -27
64 -71 97 -98z m1474 -167 c-2 -68 1 -144 5 -170 l8 -48 -41 0 c-55 0 -63 -18
-10 -22 36 -3 44 -7 46 -26 3 -22 1 -23 -30 -17 -47 11 -52 11 -58 0 -3 -5 10
-12 28 -16 18 -4 36 -9 39 -13 9 -9 -25 -57 -66 -93 -39 -35 -30 -41 26 -18
20 8 37 14 38 13 1 -2 10 -19 20 -38 l18 -34 -59 -53 c-33 -28 -76 -61 -96
-73 -33 -18 -38 -19 -38 -5 0 29 -28 71 -56 83 -15 7 -77 19 -138 27 -105 13
-166 28 -166 40 0 3 7 19 15 36 13 24 19 28 35 19 31 -17 31 -12 0 37 -17 26
-30 50 -30 55 0 4 19 12 41 18 25 7 38 15 32 21 -5 5 -24 4 -47 -2 -37 -10
-55 -3 -56 23 0 11 59 20 93 13 25 -6 30 -5 20 5 -6 7 -35 15 -62 18 -56 5
-57 7 -38 73 10 31 12 79 9 152 -3 61 -1 107 4 107 14 0 54 -29 95 -67 28 -26
42 -33 58 -28 14 4 21 2 21 -7 0 -11 2 -11 9 0 9 15 90 19 156 8 36 -6 44 -4
65 20 24 26 98 84 107 84 3 0 4 -55 3 -122z"/>
<path d="M6046 3967 c3 -10 9 -15 12 -12 3 3 0 11 -7 18 -10 9 -11 8 -5 -6z"/>
<path d="M6290 3785 c13 -14 26 -25 28 -25 3 0 -5 11 -18 25 -13 14 -26 25
-28 25 -3 0 5 -11 18 -25z"/>
<path d="M6240 3796 c0 -2 7 -7 16 -10 8 -3 12 -2 9 4 -6 10 -25 14 -25 6z"/>
<path d="M7391 4224 c0 -11 3 -14 6 -6 3 7 2 16 -1 19 -3 4 -6 -2 -5 -13z"/>
<path d="M7262 4190 c0 -14 2 -19 5 -12 2 6 2 18 0 25 -3 6 -5 1 -5 -13z"/>
<path d="M7168 4099 c-10 -5 -18 -17 -18 -25 0 -12 7 -14 28 -9 20 4 36 0 54
-15 16 -12 29 -16 33 -10 10 15 -14 50 -41 60 -31 12 -34 12 -56 -1z"/>
<path d="M7404 4075 c-20 -30 -6 -57 16 -30 7 9 29 15 52 15 32 0 39 3 36 18
-2 12 -15 18 -45 20 -36 3 -44 -1 -59 -23z"/>
<path d="M7286 3981 c-3 -5 1 -14 9 -21 19 -16 19 -34 0 -50 -12 -10 -20 -9
-40 4 -20 13 -25 14 -25 2 0 -25 24 -34 100 -34 77 0 100 8 100 36 0 12 -3 13
-12 4 -15 -15 -64 -16 -73 -1 -4 5 0 18 9 28 9 10 16 23 16 29 0 14 -76 17
-84 3z"/>
<path d="M7008 4793 c-54 -63 -46 -108 11 -64 18 14 35 18 58 14 39 -7 45 15
13 47 -25 25 -62 26 -82 3z"/>
<path d="M7043 2973 l-43 -4 0 -204 c0 -116 4 -206 9 -210 6 -3 28 -3 50 1
l41 7 0 208 c0 115 -3 208 -7 207 -5 -1 -27 -3 -50 -5z"/>
<path d="M4916 2933 c9 -21 35 -85 59 -143 24 -58 57 -135 74 -172 30 -67 31
-68 69 -68 21 0 45 6 54 13 12 9 178 384 178 402 0 12 -98 4 -103 -7 -3 -7
-23 -56 -45 -108 -22 -52 -47 -113 -57 -134 l-17 -40 -40 95 c-22 52 -48 118
-59 147 l-20 52 -55 0 -54 0 16 -37z"/>
<path d="M5397 2903 c-4 -38 -7 -129 -7 -204 l0 -136 93 -6 c51 -3 125 -3 165
0 l73 6 -3 36 -3 36 -112 3 -113 3 0 44 0 45 100 0 100 0 0 34 c0 32 -2 34
-46 40 -26 3 -71 6 -101 6 l-54 0 3 43 3 42 108 0 107 0 0 38 0 37 -154 0
-153 0 -6 -67z"/>
<path d="M5760 2930 l0 -40 60 0 60 0 0 -165 0 -165 50 0 50 0 2 166 3 167 65
1 65 1 3 38 3 37 -180 0 -181 0 0 -40z"/>
<path d="M6170 2763 l0 -208 157 2 c87 1 159 4 161 7 1 4 2 22 2 42 l0 36
-112 -4 -113 -3 -3 48 -3 47 94 0 95 0 4 35 c2 20 2 38 -1 40 -2 3 -47 5 -98
5 l-94 0 3 43 3 42 110 0 110 0 3 38 3 37 -160 0 -161 0 0 -207z"/>
<path d="M6570 2763 l0 -208 45 0 45 0 0 56 c0 50 3 57 23 63 53 14 65 8 102
-54 l36 -60 56 0 55 0 -23 38 c-12 20 -31 50 -42 65 l-19 28 25 19 c34 27 60
95 51 134 -22 101 -67 126 -234 126 l-120 0 0 -207z m214 123 c38 -16 55 -60
36 -95 -12 -23 -76 -44 -122 -39 -30 3 -31 4 -31 53 2 101 -1 95 43 95 22 0
56 -6 74 -14z"/>
<path d="M7195 2957 c-3 -7 -4 -100 -3 -207 l3 -195 24 -3 c12 -2 34 -1 47 2
23 6 23 9 26 126 l3 120 75 -92 c124 -152 129 -157 173 -151 l37 5 0 204 0
204 -50 0 -49 0 -3 -120 -3 -121 -99 121 c-95 116 -99 120 -137 120 -23 0 -42
-5 -44 -13z"/>
<path d="M7779 2923 c-45 -100 -159 -364 -159 -368 0 -3 22 -5 49 -5 49 0 49
0 67 45 l17 45 73 2 c41 1 84 2 97 2 17 1 27 -9 42 -41 19 -43 20 -43 73 -43
47 0 52 2 44 18 -5 9 -46 101 -92 205 l-82 187 -54 0 -53 0 -22 -47z m106
-124 c15 -38 25 -72 22 -75 -2 -3 -30 -4 -60 -2 l-56 3 31 73 c16 39 31 72 32
72 2 0 15 -32 31 -71z"/>
<path d="M8132 2763 l3 -208 48 -3 47 -3 0 60 0 61 45 0 c44 0 46 -2 80 -54
19 -29 41 -56 50 -60 21 -7 95 -8 95 0 0 3 -18 32 -40 64 -45 67 -47 74 -22
92 35 25 52 62 52 111 0 114 -53 146 -238 147 l-122 0 2 -207z m222 123 c37
-15 53 -54 36 -86 -18 -34 -52 -50 -107 -50 l-53 0 0 68 c0 38 3 72 7 75 11
12 82 8 117 -7z"/>
<path d="M8570 2760 l0 -210 28 0 c15 0 37 3 50 6 22 6 22 7 22 210 l0 204
-50 0 -50 0 0 -210z"/>
<path d="M8873 2933 c-8 -21 -47 -108 -85 -193 -38 -85 -72 -161 -75 -167 -4
-10 10 -13 49 -13 l55 0 13 40 13 40 99 0 100 0 15 -39 c15 -38 17 -39 69 -43
30 -1 54 -1 54 1 0 2 -41 96 -92 208 l-92 203 -53 0 c-53 0 -54 -1 -70 -37z
m106 -141 l30 -72 -64 0 -65 0 21 53 c12 28 25 63 30 76 5 13 12 22 14 19 3
-2 18 -37 34 -76z"/>
<path d="M8240 2485 c-33 -34 -34 -35 -9 -35 13 1 42 16 64 35 l40 35 -31 0
c-21 0 -40 -10 -64 -35z"/>
<path d="M5463 2411 c-47 -22 -63 -45 -63 -91 0 -45 36 -75 118 -100 108 -31
129 -65 65 -99 -32 -16 -82 -13 -129 8 -39 18 -41 18 -52 1 -13 -22 6 -41 57
-59 83 -28 180 -2 201 55 26 67 -5 105 -114 142 -90 31 -110 50 -82 81 26 28
74 35 124 18 37 -13 43 -13 54 0 15 19 -8 38 -62 53 -49 14 -69 12 -117 -9z"/>
<path d="M5820 2348 c-18 -40 -52 -115 -76 -166 -24 -52 -44 -99 -44 -106 0
-6 12 -11 27 -10 22 0 29 8 42 42 l15 42 97 0 96 0 17 -45 c15 -39 21 -45 47
-45 16 0 29 3 29 8 -1 4 -36 84 -79 177 -74 161 -80 170 -108 173 -28 3 -31
-1 -63 -70z m99 -70 c17 -39 30 -72 29 -74 -9 -8 -133 -7 -133 1 0 17 58 145
65 145 4 0 21 -32 39 -72z"/>
<path d="M6120 2246 l0 -174 30 -4 30 -5 0 126 0 126 38 -44 c20 -25 66 -81
102 -125 43 -53 73 -80 88 -81 l22 -2 0 173 c0 167 -1 173 -21 179 -12 4 -25
3 -30 -2 -4 -4 -10 -60 -11 -123 l-3 -115 -98 123 c-77 95 -104 122 -123 122
l-24 0 0 -174z"/>
<path d="M6670 2240 l0 -181 26 3 26 3 -1 125 c-2 90 1 122 9 114 6 -6 35 -51
64 -100 29 -49 60 -90 68 -92 11 -2 35 28 75 95 l58 97 3 -122 3 -123 27 3 27
3 3 115 c2 63 0 143 -3 178 -10 96 -29 86 -117 -57 -40 -66 -74 -119 -75 -118
-1 2 -33 54 -71 117 -57 95 -73 116 -95 118 l-27 3 0 -181z"/>
<path d="M7212 2297 c-30 -67 -64 -145 -77 -173 l-24 -52 25 -5 c22 -4 28 2
47 39 l21 44 92 0 93 0 23 -42 c18 -32 29 -42 51 -43 15 0 26 2 25 6 -2 3 -39
83 -82 178 -78 167 -80 171 -110 171 -30 0 -33 -5 -84 -123z m123 -17 c15 -36
29 -69 31 -75 3 -6 -22 -10 -63 -10 -40 0 -68 4 -68 10 0 23 59 155 66 148 4
-4 19 -37 34 -73z"/>
<path d="M7540 2239 l0 -180 27 3 c25 3 26 6 27 58 l1 54 50 -3 c58 -3 65 -8
102 -67 24 -37 33 -44 61 -44 17 0 32 2 32 5 0 3 -20 31 -45 62 l-44 57 29 19
c55 35 64 131 16 176 -32 30 -78 41 -173 41 l-83 0 0 -181z m210 111 c28 -28
26 -75 -5 -105 -20 -21 -34 -25 -85 -25 l-60 0 0 38 c0 20 -3 54 -6 75 l-7 37
72 0 c58 0 75 -4 91 -20z"/>
<path d="M7862 2398 c3 -20 10 -23 61 -26 l57 -3 0 -155 0 -155 26 3 26 3 -1
153 -2 152 61 0 c33 0 60 4 60 9 0 5 3 16 6 25 5 14 -11 16 -146 16 -151 0
-151 0 -148 -22z"/>
<path d="M8212 2243 l3 -178 28 -3 27 -3 0 180 0 181 -30 0 -30 0 2 -177z"/>
<path d="M8372 2243 l3 -178 25 0 25 0 5 123 5 123 100 -123 c65 -79 109 -124
123 -126 l22 -3 0 180 0 181 -30 0 -29 0 -3 -122 -3 -121 -99 121 c-76 95
-104 122 -122 122 l-24 0 2 -177z"/>
<path d="M5571 1931 c-12 -12 -21 -24 -21 -29 0 -20 34 -52 55 -52 34 0 41 18
8 22 -22 2 -28 8 -28 28 0 19 5 25 22 25 30 1 34 19 6 23 -12 2 -31 -6 -42
-17z"/>
<path d="M5662 1903 c3 -41 6 -48 26 -51 13 -2 30 2 38 8 16 14 20 90 4 90 -5
0 -10 -18 -10 -40 0 -33 -3 -40 -20 -40 -17 0 -20 7 -20 40 0 22 -5 40 -11 40
-6 0 -9 -19 -7 -47z"/>
<path d="M5767 1943 c-11 -10 -8 -93 3 -93 6 0 10 23 10 50 0 51 -1 55 -13 43z"/>
<path d="M5810 1900 c0 -48 1 -50 28 -50 34 0 47 9 56 37 9 28 -24 63 -59 63
-23 0 -25 -3 -25 -50z m59 16 c15 -18 3 -46 -20 -46 -14 0 -19 7 -19 30 0 32
19 40 39 16z"/>
<path d="M5922 1900 c-12 -27 -17 -50 -12 -50 5 0 12 5 15 10 9 14 52 12 58
-2 2 -7 7 -10 11 -7 8 8 -30 99 -42 99 -5 0 -19 -22 -30 -50z m37 -9 c-15 -5
-22 6 -14 19 6 9 10 9 16 -1 5 -8 4 -15 -2 -18z"/>
<path d="M6016 1942 c-3 -5 -5 -27 -4 -50 0 -40 2 -42 32 -42 18 0 37 5 44 12
19 19 15 66 -7 78 -23 12 -58 13 -65 2z m59 -42 c0 -18 -6 -26 -22 -28 -18 -3
-23 1 -23 21 0 28 9 39 30 35 9 -2 15 -14 15 -28z"/>
<path d="M6138 1939 c-21 -12 -24 -59 -6 -77 20 -20 56 -14 74 13 15 23 15 27
0 50 -17 26 -40 31 -68 14z m51 -23 c15 -18 3 -46 -20 -46 -22 0 -34 22 -25
45 7 19 30 19 45 1z"/>
<path d="M6270 1900 c0 -27 5 -50 10 -50 6 0 10 6 10 14 0 9 12 16 27 18 54 6
37 68 -18 68 -28 0 -29 -2 -29 -50z m55 10 c0 -22 -29 -18 -33 3 -3 14 1 18
15 15 10 -2 18 -10 18 -18z"/>
<path d="M6370 1900 c0 -27 5 -50 10 -50 6 0 10 7 10 15 0 8 5 15 10 15 6 0
13 -7 16 -15 4 -8 11 -15 16 -15 6 0 7 7 4 16 -3 8 -1 24 4 34 13 24 -11 50
-46 50 -22 0 -24 -4 -24 -50z m53 23 c8 -7 -11 -33 -24 -33 -5 0 -9 9 -9 20 0
19 20 27 33 13z"/>
<path d="M6476 1934 c-19 -18 -21 -55 -4 -72 31 -31 88 -4 88 42 0 20 -28 46
-50 46 -10 0 -26 -7 -34 -16z m59 -34 c0 -18 -6 -26 -23 -28 -13 -2 -25 3 -28
12 -10 26 4 48 28 44 17 -2 23 -10 23 -28z"/>
<path d="M6580 1900 c0 -27 5 -50 10 -50 6 0 10 9 10 19 0 12 8 21 23 24 l22
4 -22 2 c-32 2 -30 31 2 31 14 0 25 5 25 10 0 6 -16 10 -35 10 l-35 0 0 -50z"/>
<path d="M6667 1943 c-4 -3 -7 -26 -7 -50 0 -43 0 -43 35 -43 19 0 35 5 35 10
0 6 -9 10 -20 10 -11 0 -20 5 -20 10 0 6 9 10 20 10 11 0 20 5 20 10 0 6 -9
10 -20 10 -11 0 -20 5 -20 10 0 6 9 10 20 10 11 0 20 5 20 10 0 11 -53 14 -63
3z"/>
<path d="M6763 1943 c-22 -8 -14 -39 13 -51 14 -7 22 -17 19 -22 -4 -7 -13 -6
-27 1 -16 9 -19 8 -16 -3 3 -7 18 -13 34 -13 39 0 45 30 10 46 -31 14 -35 34
-6 26 24 -6 36 8 14 17 -18 7 -23 7 -41 -1z"/>
<path d="M6840 1900 c0 -27 5 -50 10 -50 6 0 10 23 10 50 0 28 -4 50 -10 50
-5 0 -10 -22 -10 -50z"/>
<path d="M6896 1931 c-35 -39 -4 -90 47 -77 38 9 48 53 17 78 -28 23 -43 23
-64 -1z m54 -16 c17 -20 5 -45 -20 -45 -23 0 -35 22 -26 45 7 19 30 19 46 0z"/>
<path d="M7000 1903 c0 -32 4 -53 11 -53 7 0 8 12 4 33 l-6 32 20 -25 c11 -14
21 -28 21 -32 0 -5 7 -8 15 -8 11 0 15 12 15 50 0 28 -4 50 -10 50 -5 0 -10
-14 -10 -32 l0 -32 -30 34 -29 35 -1 -52z"/>
<path d="M7132 1938 c-13 -16 -43 -88 -36 -88 2 0 13 6 24 12 16 10 24 10 41
0 31 -19 33 -9 10 42 -22 50 -24 52 -39 34z m14 -45 c-10 -10 -19 5 -10 18 6
11 8 11 12 0 2 -7 1 -15 -2 -18z"/>
<path d="M7327 1943 c-10 -10 -8 -93 2 -93 5 0 11 6 14 14 3 8 16 16 29 18 29
4 36 37 12 55 -19 14 -47 17 -57 6z m49 -24 c8 -14 -11 -33 -25 -25 -11 7 -4
36 9 36 5 0 12 -5 16 -11z"/>
<path d="M7423 1900 c-17 -40 -18 -50 -7 -50 8 0 14 5 14 10 0 15 48 12 53 -2
2 -7 7 -10 11 -7 9 9 -26 99 -39 99 -6 0 -21 -22 -32 -50z m41 5 c3 -9 0 -15
-9 -15 -9 0 -12 6 -9 15 4 8 7 15 9 15 2 0 5 -7 9 -15z"/>
<path d="M7520 1901 c0 -28 5 -51 10 -51 6 0 10 7 10 15 0 8 5 15 10 15 6 0
13 -7 16 -15 4 -8 11 -15 16 -15 6 0 7 7 4 16 -3 8 -2 23 3 33 13 24 1 40 -37
47 l-32 7 0 -52z m53 14 c1 -5 -6 -11 -15 -13 -11 -2 -18 3 -18 13 0 17 30 18
33 0z"/>
<path d="M7626 1907 c-19 -51 -20 -65 -4 -49 16 16 55 15 61 0 2 -7 7 -10 11
-7 9 9 -27 99 -40 99 -6 0 -19 -19 -28 -43z m37 -20 c-3 -5 -10 -4 -15 1 -6 6
-7 16 -3 22 6 9 9 9 16 -1 4 -7 5 -17 2 -22z"/>
<path d="M7890 1903 c-23 -52 -21 -60 9 -41 17 11 25 11 42 0 12 -7 22 -12 24
-10 6 6 -37 98 -46 98 -4 0 -17 -21 -29 -47z m40 -9 c0 -8 -4 -14 -10 -14 -5
0 -10 9 -10 21 0 11 5 17 10 14 6 -3 10 -13 10 -21z"/>
<path d="M7993 1943 c-22 -8 -14 -39 14 -52 19 -9 23 -15 15 -23 -8 -8 -16 -7
-28 3 -15 12 -17 12 -12 -1 3 -9 17 -15 34 -15 39 0 45 30 10 46 -31 14 -35
34 -6 26 24 -6 36 8 14 17 -18 7 -23 7 -41 -1z"/>
<path d="M8083 1938 c-19 -25 -21 -46 -7 -67 16 -22 58 -29 69 -11 4 6 -6 10
-23 10 -34 0 -49 24 -30 47 7 9 21 12 36 8 17 -4 23 -2 20 7 -6 18 -52 22 -65
6z"/>
<path d="M8176 1934 c-30 -29 -11 -84 29 -84 49 0 72 52 37 83 -23 21 -46 22
-66 1z m59 -24 c8 -26 -1 -40 -26 -40 -22 0 -34 22 -25 45 8 22 44 18 51 -5z"/>
<path d="M8270 1940 c0 -5 7 -10 15 -10 11 0 15 -11 15 -40 0 -22 5 -40 10
-40 6 0 10 18 10 40 0 30 4 40 16 40 8 0 12 5 9 10 -3 6 -22 10 -41 10 -19 0
-34 -4 -34 -10z"/>
<path d="M8363 1900 c-17 -40 -18 -50 -7 -50 8 0 14 5 14 10 0 15 48 12 53 -2
2 -7 8 -10 13 -5 9 8 -31 97 -44 97 -4 0 -18 -22 -29 -50z m47 -12 c0 -5 -7
-8 -15 -8 -15 0 -20 21 -8 33 7 7 23 -11 23 -25z"/>
<path d="M7210 1895 c0 -43 1 -45 30 -45 17 0 30 5 30 10 0 6 -9 10 -20 10
-16 0 -20 7 -20 35 0 19 -4 35 -10 35 -5 0 -10 -20 -10 -45z"/>
<path d="M7750 1895 c0 -25 5 -45 10 -45 6 0 10 12 10 28 l0 27 18 -23 18 -24
17 24 16 23 0 -27 c1 -47 21 -31 21 17 0 33 -4 45 -15 45 -8 0 -15 -4 -15 -8
0 -5 -6 -17 -14 -27 -14 -19 -15 -19 -27 8 -19 43 -39 34 -39 -18z"/>
<path d="M8455 1930 c-9 -14 3 -30 33 -41 19 -7 22 -13 14 -21 -8 -8 -15 -8
-27 2 -18 15 -34 5 -18 -11 16 -16 67 -7 71 14 2 12 -7 22 -29 31 -31 13 -26
32 5 20 9 -3 16 -1 16 5 0 14 -57 15 -65 1z"/>
<path d="M8741 1840 l-33 -28 71 -89 c39 -48 71 -91 71 -94 0 -3 -66 10 -146
28 l-146 34 -33 -26 -34 -26 116 -157 c64 -86 117 -158 118 -160 6 -7 75 44
75 56 0 7 -31 51 -69 100 -38 48 -68 88 -67 89 1 1 62 -11 134 -27 160 -36
173 -37 208 -6 l28 23 -95 119 c-52 66 -108 136 -123 157 -16 20 -31 37 -35
37 -3 -1 -21 -14 -40 -30z"/>
<path d="M5270 1829 c-93 -37 -100 -121 -17 -223 43 -53 50 -72 31 -91 -21
-20 -35 -19 -74 8 -26 17 -64 73 -86 125 -1 2 -18 -7 -37 -18 -33 -20 -35 -24
-26 -48 26 -68 110 -143 181 -163 80 -21 148 27 148 105 0 33 -9 53 -45 101
-64 85 -71 125 -21 125 26 0 106 -65 106 -86 0 -23 25 -27 60 -9 31 16 31 16
14 43 -42 67 -67 92 -116 116 -55 28 -78 31 -118 15z"/>
<path d="M6967 1733 c-12 -11 -7 -59 7 -79 12 -15 18 -17 33 -8 22 13 29 60
12 80 -12 15 -41 19 -52 7z"/>
<path d="M7066 1725 c-23 -61 11 -109 46 -65 27 34 20 74 -13 78 -17 2 -29 -3
-33 -13z"/>
<path d="M8365 1704 c-35 -20 -42 -30 -52 -76 -6 -29 -10 -54 -8 -56 2 -2 17
5 33 16 18 14 37 42 50 79 12 31 20 58 19 58 -1 1 -20 -9 -42 -21z"/>
<path d="M6903 1663 c-20 -7 -15 -58 7 -78 23 -21 50 -13 50 15 0 42 -29 73
-57 63z"/>
<path d="M7139 1649 c-27 -27 -22 -73 8 -77 44 -6 69 76 27 92 -8 3 -24 -4
-35 -15z"/>
<path d="M6455 1618 c-259 -11 -300 -20 -130 -29 489 -24 462 -24 470 0 14 46
30 44 -340 29z"/>
<path d="M7287 1616 c-10 -26 3 -46 32 -46 94 -1 549 25 546 30 -3 4 -89 10
-192 14 -103 3 -231 9 -284 12 -83 6 -97 4 -102 -10z"/>
<path d="M6981 1575 c-72 -78 -55 -103 69 -101 l85 1 3 28 c3 22 -6 38 -41 73
-24 24 -51 44 -59 44 -9 0 -34 -20 -57 -45z"/>
<path d="M8363 1559 c-18 -12 -33 -25 -33 -31 0 -8 175 -313 190 -331 8 -9 80
30 80 43 0 13 -191 340 -198 340 -4 0 -22 -10 -39 -21z"/>
<path d="M5550 1462 c-86 -59 -166 -114 -178 -123 l-22 -16 42 -28 c26 -18 46
-24 53 -19 66 49 56 49 139 -1 l76 -46 0 -50 c0 -47 2 -49 36 -64 20 -8 40
-15 43 -15 6 0 52 377 51 417 0 10 -70 54 -82 53 -2 -1 -73 -49 -158 -108z
m147 -34 c-3 -18 -9 -52 -12 -75 l-7 -43 -37 19 c-67 35 -67 43 -4 89 32 23
59 42 61 42 2 0 2 -15 -1 -32z"/>
<path d="M8210 1475 c-25 -13 -92 -45 -150 -71 -58 -27 -106 -49 -108 -50 -1
0 5 -17 13 -37 l15 -36 56 26 c31 14 59 21 63 17 7 -9 56 -114 105 -227 l25
-58 38 16 c21 9 41 19 45 23 4 4 -22 72 -57 151 -36 80 -65 146 -65 147 0 1
25 12 55 25 30 12 55 26 55 29 0 21 -24 70 -33 70 -7 -1 -32 -12 -57 -25z"/>
<path d="M5912 1236 c-40 -99 -72 -184 -72 -187 0 -9 80 -40 89 -35 4 3 24 52
46 111 21 58 41 102 45 98 4 -4 27 -68 51 -142 45 -137 55 -153 112 -166 20
-6 27 -4 27 8 0 9 27 90 60 180 33 91 60 172 60 180 0 7 -17 19 -37 25 -47 15
-50 12 -93 -108 -18 -50 -35 -90 -39 -90 -4 0 -26 61 -50 135 -24 74 -49 139
-56 145 -7 6 -26 15 -42 19 l-29 8 -72 -181z"/>
<path d="M7675 1271 c-83 -25 -90 -30 -87 -52 3 -33 93 -352 102 -362 6 -7 68
9 82 22 4 4 1 30 -6 59 -8 28 -11 54 -8 56 4 2 24 7 44 11 34 6 42 3 84 -34
51 -45 58 -47 114 -30 l38 12 -52 45 c-28 24 -55 48 -60 53 -5 4 1 20 13 35
15 18 21 41 21 73 0 58 -16 89 -59 118 -46 31 -112 29 -226 -6z m175 -71 c22
-22 26 -51 10 -80 -11 -20 -103 -55 -123 -47 -11 4 -37 88 -37 117 0 12 55 28
98 29 20 1 40 -7 52 -19z"/>
<path d="M6586 1188 c-15 -110 -37 -350 -33 -355 3 -2 23 -7 45 -10 l40 -5 6
68 c4 38 9 89 13 114 l6 45 50 -102 c65 -135 73 -135 159 -13 72 102 76 100
59 -47 -5 -48 -8 -89 -8 -90 1 -1 22 -3 47 -5 l45 -3 12 140 c6 77 12 168 12
203 l1 62 -38 0 c-37 0 -40 -3 -122 -116 l-85 -115 -62 130 c-55 116 -65 131
-87 131 -13 0 -31 3 -39 6 -11 4 -16 -6 -21 -38z"/>
<path d="M7284 1203 c-15 -3 -26 -23 -46 -81 -14 -42 -46 -134 -71 -204 l-46
-128 49 0 c48 0 48 0 65 44 19 49 14 47 147 61 l57 6 21 -40 c20 -41 20 -41
68 -34 26 3 48 7 50 8 2 2 -29 58 -69 126 -39 68 -87 152 -106 187 -37 65 -46
70 -119 55z m86 -174 l29 -57 -55 -7 c-31 -4 -58 -4 -61 -1 -3 3 5 37 17 77
24 80 22 80 70 -12z"/>
</g>
</svg>
