<?xml version="1.0" standalone="no"?>
<!DOCTYPE svg PUBLIC "-//W3C//DTD SVG 20010904//EN"
 "http://www.w3.org/TR/2001/REC-SVG-20010904/DTD/svg10.dtd">
<svg version="1.0" xmlns="http://www.w3.org/2000/svg"
 width="1408.000000pt" height="768.000000pt" viewBox="0 0 1408.000000 768.000000"
 preserveAspectRatio="xMidYMid meet">

<g transform="translate(0.000000,768.000000) scale(0.100000,-0.100000)"
fill="#000000" stroke="none">
<path d="M6040 6513 c-276 -44 -499 -159 -678 -348 -142 -150 -245 -351 -294
-573 -19 -82 -22 -130 -23 -302 0 -178 3 -219 23 -313 65 -302 200 -578 423
-860 248 -315 526 -574 932 -871 20 -15 37 -33 37 -40 0 -7 -79 -118 -176
-246 -96 -128 -181 -243 -187 -257 -8 -19 -7 -27 6 -40 28 -28 158 -15 271 28
77 28 162 113 239 239 91 149 78 139 139 98 71 -46 274 -158 288 -158 15 0
184 91 292 157 159 98 243 128 386 139 l82 7 56 -62 c78 -85 149 -121 246
-121 63 0 144 18 158 35 19 23 -23 96 -86 154 -79 72 -127 86 -294 83 -120 -1
-132 0 -110 12 29 16 195 61 256 70 29 4 58 -1 100 -16 90 -34 210 -32 287 4
64 30 167 122 167 149 0 51 -124 104 -245 104 -99 0 -168 -29 -234 -98 -25
-26 -53 -47 -63 -47 -11 0 -53 -7 -94 -16 -42 -8 -80 -14 -86 -12 -5 2 17 23
50 46 74 51 108 91 140 161 41 90 39 251 -4 268 -20 7 -86 -23 -135 -62 -88
-70 -129 -160 -129 -290 l0 -69 -54 -51 c-52 -49 -343 -252 -350 -244 -2 2
-19 25 -39 50 l-34 46 43 27 c62 39 146 136 182 209 43 87 63 174 69 300 7
134 20 155 113 180 57 16 61 19 58 44 -2 20 -16 33 -63 59 -39 22 -74 51 -100
86 -51 66 -116 101 -199 106 -34 2 -80 -1 -104 -7 -65 -18 -139 -85 -184 -166
-45 -83 -49 -121 -14 -137 37 -16 51 -6 91 71 96 182 240 200 357 46 l37 -50
-28 -30 c-46 -48 -53 -70 -61 -199 -9 -138 -20 -187 -60 -266 -49 -96 -161
-191 -270 -229 -64 -22 -179 -46 -265 -55 l-60 -7 71 38 c156 85 304 217 346
310 31 68 32 190 2 230 -83 112 -227 96 -350 -40 -30 -34 -127 -158 -215 -274
-88 -117 -165 -213 -171 -213 -27 0 -316 223 -493 381 -356 317 -684 740 -659
852 5 27 107 242 121 257 2 2 10 0 17 -5 119 -90 202 -126 294 -126 218 -1
305 226 232 611 -36 191 -62 245 -111 233 -32 -9 -33 -47 -5 -155 94 -362 35
-615 -140 -595 -115 13 -278 147 -320 264 -33 93 -8 239 63 372 131 243 315
386 540 420 282 43 509 -58 628 -277 51 -96 85 -117 215 -132 148 -18 161 -20
164 -33 2 -7 9 -30 15 -53 19 -70 73 -130 152 -166 81 -38 81 -41 24 -144 -85
-153 -232 -234 -424 -234 -135 0 -246 47 -341 142 -59 60 -86 70 -114 42 -26
-26 -19 -43 47 -111 67 -70 104 -94 211 -134 l69 -26 -54 -13 c-93 -21 -198
-78 -259 -139 -109 -110 -162 -256 -162 -451 -1 -128 14 -210 61 -340 43 -116
75 -167 129 -201 51 -32 86 -36 135 -15 54 23 75 56 136 217 69 183 104 256
179 368 127 189 306 324 567 426 136 53 207 96 280 169 87 87 131 173 175 341
43 160 59 201 115 285 41 62 228 260 246 260 3 0 9 -29 12 -65 6 -77 20 -97
80 -115 104 -31 168 -84 187 -157 18 -74 26 -90 70 -137 22 -24 40 -49 40 -56
0 -25 -45 -92 -76 -111 -17 -10 -55 -24 -85 -29 -72 -14 -117 -38 -151 -81
-45 -56 -47 -116 -8 -279 58 -245 43 -402 -60 -618 -28 -57 -50 -113 -50 -123
0 -10 11 -26 25 -35 23 -15 27 -15 49 -1 12 9 63 59 111 111 264 287 457 589
549 856 152 447 107 936 -118 1274 -353 530 -1098 655 -1609 270 -190 -144
-350 -371 -351 -499 -1 -177 212 -242 311 -96 34 50 32 130 -4 201 -33 64 -54
80 -78 60 -13 -10 -15 -24 -11 -54 20 -158 21 -151 -10 -175 -48 -38 -114 -3
-114 59 0 80 141 281 279 397 360 303 895 313 1279 23 99 -75 158 -139 234
-255 163 -250 222 -582 163 -917 -47 -268 -152 -505 -336 -764 -81 -113 -149
-198 -154 -192 -2 2 3 35 11 73 22 117 18 238 -16 397 -16 77 -30 158 -30 179
0 52 39 83 123 99 116 21 194 96 217 205 13 63 7 79 -50 140 -24 25 -43 57
-50 85 -26 101 -105 187 -206 224 -27 10 -52 21 -56 25 -4 3 -8 48 -9 100 -3
118 -17 141 -69 119 -84 -35 -289 -227 -367 -343 -56 -83 -79 -140 -119 -289
-47 -176 -82 -246 -163 -326 -56 -56 -82 -73 -176 -114 -324 -143 -424 -205
-560 -347 -131 -138 -231 -313 -311 -544 -40 -117 -64 -155 -99 -155 -32 0
-60 35 -98 125 -48 112 -68 195 -74 305 -13 236 78 422 247 499 46 22 122 43
213 61 164 33 235 57 331 114 186 112 314 342 319 578 2 73 -1 91 -19 114 -48
66 -56 68 -277 75 -184 7 -272 16 -319 34 -10 4 -36 41 -59 83 -113 207 -311
314 -584 315 -329 1 -580 -162 -748 -488 -56 -108 -78 -181 -84 -276 -6 -97
10 -172 52 -233 l26 -38 -68 -135 -68 -136 -22 51 c-84 192 -122 359 -130 572
-14 389 96 686 340 916 208 196 527 306 797 273 225 -26 415 -110 585 -256 50
-44 81 -53 103 -31 24 24 12 54 -40 105 -135 131 -342 231 -552 268 -80 14
-273 18 -336 8z m1288 -1149 c17 -11 22 -25 22 -57 0 -57 -9 -87 -27 -87 -53
0 -143 87 -143 137 0 21 4 23 63 23 40 0 70 -5 85 -16z m-174 -1565 c30 -14
50 -65 40 -105 -28 -117 -155 -238 -352 -334 -94 -46 -171 -75 -178 -67 -3 3
46 74 110 159 215 286 227 300 285 330 61 32 61 32 95 17z m831 -76 c-12 -63
-79 -173 -107 -173 -13 0 -1 75 19 117 16 34 70 93 86 93 5 0 6 -16 2 -37z
m440 -243 c34 -13 24 -27 -42 -60 -55 -28 -161 -34 -202 -11 l-23 13 36 24
c20 14 46 29 58 34 31 12 141 12 173 0z m-1187 -288 c36 -34 51 -80 31 -93
-20 -12 -29 -11 -29 4 0 8 -14 33 -30 56 -28 38 -32 61 -10 61 4 0 22 -13 38
-28z m-591 -44 c-19 -24 -70 -97 -114 -163 -45 -67 -98 -136 -119 -154 -40
-36 -107 -70 -137 -71 -17 0 -16 3 4 33 66 94 265 353 278 362 14 9 89 31 114
34 5 1 -7 -18 -26 -41z m437 -1 c48 -26 84 -81 67 -101 -6 -7 -34 -25 -62 -41
l-51 -27 -42 22 c-42 24 -208 121 -215 127 -13 10 21 19 107 29 140 17 153 16
196 -9z m998 -13 c52 -37 59 -54 21 -54 -51 0 -99 19 -139 56 l-39 35 58 -4
c44 -3 68 -11 99 -33z"/>
<path d="M7707 6174 c-4 -4 -7 -45 -7 -91 l0 -83 -79 0 c-113 0 -111 2 -111
-90 0 -46 5 -82 11 -86 6 -3 47 -7 92 -8 l82 -1 5 -90 5 -90 85 0 85 0 3 93 3
92 72 -1 c118 -3 108 -11 105 89 l-3 87 -87 3 -87 3 -3 87 -3 87 -80 3 c-45 1
-84 0 -88 -4z"/>
<path d="M6379 5490 c-94 -28 -170 -168 -109 -200 31 -17 57 -3 74 40 28 72
92 91 152 45 40 -30 79 -33 94 -5 18 33 -8 71 -69 103 -55 27 -94 32 -142 17z"/>
<path d="M7391 4091 c-36 -36 4 -95 48 -71 29 15 36 48 15 71 -22 24 -39 24
-63 0z"/>
<path d="M10587 3188 c-133 -143 -193 -316 -167 -491 14 -94 38 -164 81 -232
l31 -48 -22 -95 c-12 -52 -30 -117 -39 -145 l-17 -51 -13 75 c-25 157 -78 265
-184 374 -78 81 -98 74 -122 -41 -42 -197 9 -368 158 -529 l71 -78 -39 -73
c-21 -40 -69 -111 -107 -158 -37 -47 -68 -92 -68 -99 0 -26 26 -40 50 -27 22
12 126 138 157 190 17 30 19 30 74 24 91 -10 220 13 303 54 83 42 174 128 225
216 45 76 38 90 -50 94 -120 6 -248 -32 -359 -107 -33 -22 -60 -39 -60 -38 0
1 16 49 34 107 l34 104 72 18 c208 51 340 168 386 343 11 42 11 52 -1 64 -12
12 -23 12 -81 -4 -103 -28 -179 -71 -257 -146 -40 -38 -73 -69 -73 -69 -1 0 4
26 11 58 8 38 24 73 49 106 76 100 106 189 106 316 0 137 -59 326 -108 345
-11 4 -35 -14 -75 -57z m87 -114 c14 -43 20 -89 20 -169 1 -95 -3 -118 -24
-170 l-25 -60 -5 97 c-5 101 -15 124 -47 114 -18 -6 -21 -20 -27 -144 -4 -75
-10 -153 -15 -172 l-8 -35 -16 38 c-47 110 -54 230 -19 344 24 76 116 227 135
220 7 -2 20 -30 31 -63z m240 -565 c-41 -74 -120 -142 -204 -175 -38 -15 -72
-25 -75 -23 -9 10 66 108 110 146 46 39 160 103 183 103 9 0 4 -16 -14 -51z
m-671 -23 c44 -58 86 -135 107 -197 24 -70 39 -242 22 -253 -16 -9 -101 99
-133 171 -16 33 -33 92 -39 130 -11 68 -5 183 10 183 4 0 19 -15 33 -34z m632
-428 c-38 -56 -124 -131 -179 -158 -61 -30 -218 -62 -233 -47 -10 10 72 91
133 132 79 53 182 88 277 94 17 1 17 -1 2 -21z"/>
<path d="M4103 2418 c2 -7 30 -69 60 -138 31 -69 86 -195 124 -280 l68 -155
45 -3 45 -3 109 248 c60 136 120 269 132 296 l22 47 -49 0 c-27 0 -49 -4 -49
-10 0 -22 -204 -470 -211 -463 -4 5 -52 112 -107 238 l-100 230 -47 3 c-36 2
-46 0 -42 -10z"/>
<path d="M4780 2135 l0 -295 220 0 220 0 0 35 0 35 -175 0 -175 0 0 101 0 102
151 -7 150 -8 -3 39 -3 38 -147 3 -148 3 0 89 0 90 170 0 170 0 0 35 0 35
-215 0 -215 0 0 -295z"/>
<path d="M5270 2395 l0 -35 100 0 100 0 0 -260 0 -260 45 0 45 0 0 260 0 260
100 0 100 0 0 35 0 35 -245 0 -245 0 0 -35z"/>
<path d="M5850 2135 l0 -295 220 0 220 0 0 35 0 35 -180 0 -180 0 5 98 4 97
148 1 148 1 0 34 0 34 -150 5 -150 5 1 45 c1 25 2 64 3 88 l1 42 165 0 c156 0
165 1 165 19 0 11 3 26 6 35 5 14 -17 16 -210 16 l-216 0 0 -295z"/>
<path d="M6410 2135 l0 -295 45 0 45 0 0 95 0 95 88 -6 c48 -3 92 -7 98 -9 5
-2 36 -42 67 -89 l58 -86 51 0 50 0 -24 33 c-57 75 -120 168 -117 170 2 2 17
9 33 17 37 19 82 89 91 140 14 82 -39 174 -120 211 -33 16 -67 19 -202 19
l-163 0 0 -295z m325 211 c45 -19 75 -69 75 -124 0 -34 -6 -49 -34 -80 l-34
-37 -121 -3 -121 -4 0 131 0 131 100 0 c65 0 113 -5 135 -14z"/>
<path d="M7030 2135 l0 -295 45 0 45 0 0 295 0 295 -45 0 -45 0 0 -295z"/>
<path d="M7280 2135 l0 -295 45 0 45 0 2 215 3 215 85 -108 c47 -59 122 -155
169 -214 81 -104 85 -108 122 -108 l39 0 0 295 0 295 -42 0 -43 0 3 -216 c2
-131 -1 -215 -6 -213 -5 2 -85 100 -178 217 -166 209 -169 212 -206 212 l-38
0 0 -295z"/>
<path d="M8122 2403 c-12 -32 -84 -196 -132 -298 -18 -38 -52 -114 -76 -167
l-43 -98 45 0 c42 0 45 2 59 38 9 21 23 54 33 73 l17 34 156 3 156 2 33 -75
33 -75 43 0 c24 0 44 4 44 9 0 5 -15 40 -34 77 -18 38 -77 167 -131 287 l-98
217 -48 0 c-42 0 -48 -3 -57 -27z m107 -171 c23 -52 50 -112 61 -135 11 -22
20 -42 20 -44 0 -8 -240 -2 -245 7 -3 5 11 49 33 97 21 49 47 109 58 135 10
26 22 44 26 40 3 -4 25 -49 47 -100z"/>
<path d="M8570 2135 l0 -295 45 0 45 0 0 89 0 90 92 3 91 3 61 -92 61 -93 48
0 c36 0 46 3 41 13 -5 6 -34 49 -66 95 -57 82 -67 102 -49 102 5 0 24 12 42
27 63 53 86 153 54 230 -22 52 -42 72 -100 99 -46 22 -63 24 -207 24 l-158 0
0 -295z m326 206 c34 -15 45 -28 59 -66 17 -43 17 -51 3 -88 -27 -75 -79 -95
-224 -89 l-74 4 0 129 0 129 98 0 c73 0 107 -5 138 -19z"/>
<path d="M9180 2135 l0 -295 45 0 45 0 0 295 0 295 -45 0 -45 0 0 -295z"/>
<path d="M9606 2403 c-21 -42 -246 -551 -246 -557 0 -3 20 -6 43 -6 l44 0 27
69 c32 82 26 80 226 78 l125 -2 17 -34 c10 -19 24 -52 33 -73 14 -36 17 -38
60 -38 25 0 45 2 45 5 0 3 -32 74 -71 158 -39 83 -79 170 -89 192 -10 22 -38
84 -63 138 l-46 97 -45 0 c-40 0 -47 -4 -60 -27z m184 -339 c0 -11 -26 -14
-125 -14 -69 0 -125 3 -125 6 0 3 22 56 49 118 27 61 55 125 61 141 12 30 13
29 76 -104 35 -73 64 -140 64 -147z"/>
<path d="M4303 1630 c-56 -12 -92 -32 -132 -74 -30 -31 -35 -44 -39 -94 -8
-107 40 -152 198 -192 111 -27 139 -39 151 -62 16 -29 -13 -65 -62 -78 -55
-15 -124 -5 -197 30 l-60 28 -25 -51 c-26 -51 -26 -52 -7 -68 10 -9 50 -26 89
-39 95 -30 231 -26 304 9 89 43 127 138 89 223 -26 59 -64 81 -193 113 -57 15
-114 33 -126 41 -27 17 -30 55 -8 78 35 35 162 33 233 -3 l40 -20 21 49 c12
27 21 53 21 59 0 18 -110 51 -183 56 -40 2 -91 0 -114 -5z"/>
<path d="M4906 1603 c-7 -16 -36 -80 -64 -143 -28 -63 -82 -186 -121 -273 -39
-87 -71 -160 -71 -163 0 -2 33 -4 73 -4 l74 0 24 63 25 62 144 0 145 0 29 -62
30 -63 78 0 78 0 -48 98 c-27 53 -91 190 -142 305 l-94 207 -73 0 c-69 0 -73
-1 -87 -27z m132 -227 c23 -56 42 -106 42 -110 0 -3 -40 -6 -90 -6 -49 0 -90
2 -90 6 0 3 18 47 40 99 22 52 40 99 40 104 0 33 21 -1 58 -93z"/>
<path d="M5410 1325 l0 -305 70 0 70 0 2 182 3 181 59 -74 c33 -41 100 -122
150 -181 l89 -108 64 0 63 0 0 305 0 306 -71 -3 -72 -3 2 -177 c1 -98 -1 -178
-6 -178 -4 1 -24 20 -43 44 -19 24 -86 104 -149 179 l-114 137 -59 0 -58 0 0
-305z"/>
<path d="M6370 1325 l0 -305 68 0 67 0 -4 170 c-1 93 1 170 6 170 4 0 46 -63
92 -140 83 -140 84 -140 120 -140 l37 0 85 146 84 146 3 -176 2 -176 70 0 70
0 0 305 0 305 -62 0 -63 0 -42 -73 c-126 -214 -174 -292 -181 -294 -4 -2 -36
45 -71 105 -35 59 -74 123 -87 142 -12 19 -34 54 -48 78 -26 42 -26 42 -86 42
l-60 0 0 -305z"/>
<path d="M7392 1603 c-6 -16 -67 -153 -135 -306 l-125 -278 76 3 77 3 24 63
25 62 143 0 144 0 29 -65 29 -65 77 0 c57 0 75 3 71 13 -3 6 -66 144 -139 304
l-133 293 -77 0 c-74 0 -76 -1 -86 -27z m136 -226 c23 -56 42 -107 42 -113 0
-12 -179 -11 -181 1 -2 9 85 215 91 215 3 0 24 -46 48 -103z"/>
<path d="M7890 1326 l0 -306 75 0 75 0 0 85 0 85 63 0 64 0 57 -85 56 -85 80
0 80 0 -67 96 -66 96 42 35 c67 57 90 123 71 209 -15 67 -52 112 -119 142 -52
25 -68 27 -233 30 l-178 4 0 -306z m354 161 c30 -20 41 -54 32 -103 -11 -54
-51 -74 -153 -74 l-83 0 0 101 0 101 89 -4 c61 -3 97 -9 115 -21z"/>
<path d="M8470 1570 l0 -60 95 0 95 0 0 -245 0 -245 75 0 75 0 0 245 0 245
100 0 100 0 0 60 0 60 -270 0 -270 0 0 -60z"/>
<path d="M9089 1626 c-2 -2 -3 -140 -1 -305 l3 -301 69 0 70 0 0 305 0 305
-68 0 c-38 0 -71 -2 -73 -4z"/>
<path d="M9370 1325 l0 -305 70 0 70 0 2 181 3 182 150 -182 150 -181 63 0 62
0 0 305 0 305 -70 0 -70 0 0 -181 c0 -101 -4 -179 -9 -177 -5 2 -75 83 -156
181 l-147 177 -59 0 -59 0 0 -305z"/>
</g>
</svg>
